<?xml version="1.0" encoding="UTF-8" standalone="no"?>
<!DOCTYPE svg PUBLIC "-//W3C//DTD SVG 1.1//EN" "http://www.w3.org/Graphics/SVG/1.1/DTD/svg11.dtd">
<svg xmlns="http://www.w3.org/2000/svg" version="1.1" viewBox="0.00 0.00 441.00 93.00">
<g stroke-width="2.00" fill="none" stroke-linecap="butt">
<path stroke="#57cff3" vector-effect="non-scaling-stroke" d="
  M 244.81 39.23
  Q 244.47 37.82 243.33 37.34
  Q 242.84 37.14 242.60 37.61
  Q 242.17 38.42 243.00 38.95"
/>
<path stroke="#57dcfa" vector-effect="non-scaling-stroke" d="
  M 75.40 51.56
  C 76.72 69.76 96.92 81.95 113.44 72.45
  C 131.54 62.04 140.51 38.59 121.57 23.48
  Q 115.38 18.55 108.17 16.86
  C 91.91 13.03 75.85 24.02 75.29 41.25
  Q 75.10 47.33 75.40 51.56"
/>
<path stroke="#00c3f3" vector-effect="non-scaling-stroke" d="
  M 84.62 37.32
  C 83.65 48.47 82.67 69.38 99.63 68.05
  C 110.07 67.23 129.40 47.16 121.31 36.00
  Q 113.93 25.83 101.45 23.84
  C 92.20 22.36 85.44 27.85 84.62 37.32"
/>
</g>
<path fill="#00b6ec" d="
  M 335.70 68.63
  C 330.88 73.56 325.10 82.08 317.43 77.25
  C 313.85 74.99 312.84 69.93 312.80 65.94
  Q 312.68 54.26 312.76 20.50
  Q 312.77 15.97 313.92 12.16
  C 315.82 5.88 323.14 5.48 328.25 8.04
  Q 342.59 15.21 356.75 22.83
  C 364.10 26.79 369.01 32.60 361.86 40.62
  Q 349.11 54.92 335.70 68.63
  Z"
/>
<path fill="#00b6ec" d="
  M 244.81 39.23
  Q 244.47 37.82 243.33 37.34
  Q 242.84 37.14 242.60 37.61
  Q 242.17 38.42 243.00 38.95
  L 242.78 39.21
  A 0.99 0.97 -26.5 0 0 242.54 39.90
  Q 243.11 56.36 242.71 61.75
  C 242.32 67.00 244.46 76.76 237.05 78.11
  C 233.03 78.84 227.52 77.31 227.52 72.19
  Q 227.49 44.28 227.50 16.37
  C 227.51 8.75 234.12 3.74 240.96 8.17
  Q 242.93 9.45 245.19 13.09
  Q 253.71 26.74 262.12 40.62
  A 0.64 0.63 -44.7 0 0 263.20 40.62
  Q 272.58 25.44 282.04 10.04
  C 284.83 5.50 293.69 5.77 296.62 10.39
  Q 297.99 12.57 298.00 17.87
  Q 298.01 44.91 297.98 71.94
  C 297.98 79.74 282.40 82.10 282.49 69.37
  Q 282.61 53.41 282.26 37.99
  A 0.62 0.62 0.0 0 0 281.11 37.68
  Q 275.74 46.39 270.17 54.68
  C 267.40 58.80 266.29 60.93 261.26 60.25
  Q 258.30 59.85 256.94 57.81
  Q 250.73 48.56 244.81 39.23
  Z"
/>
<path fill="#00b6ec" d="
  M 168.82 74.92
  C 165.06 81.15 154.53 78.87 154.52 70.70
  Q 154.47 41.96 154.51 13.23
  Q 154.51 12.74 154.80 12.35
  C 157.93 8.08 159.63 7.18 165.04 7.35
  C 181.76 7.89 202.55 3.84 210.52 18.91
  C 216.71 30.63 213.09 46.27 200.33 51.91
  A 0.91 0.90 57.8 0 0 200.01 53.33
  C 203.48 57.34 210.72 64.54 212.24 69.44
  C 215.12 78.75 203.01 81.15 197.69 74.60
  Q 190.13 65.30 182.86 55.81
  A 0.78 0.77 -18.1 0 0 182.24 55.50
  L 170.77 55.50
  Q 170.20 55.50 170.18 56.07
  C 170.03 60.82 171.10 71.13 168.82 74.92
  Z
  M 169.99 22.58
  L 170.03 40.98
  A 0.89 0.89 0.0 0 0 170.92 41.87
  L 187.13 41.84
  A 10.38 9.29 -0.1 0 0 197.49 32.54
  L 197.49 30.94
  A 10.38 9.29 -0.1 0 0 187.09 21.66
  L 170.88 21.69
  A 0.89 0.89 0.0 0 0 169.99 22.58
  Z"
/>
<path fill="#00b6ec" d="
  M 424.02 53.50
  Q 429.23 59.69 433.91 66.00
  C 441.45 76.16 427.88 82.79 422.08 75.46
  Q 414.29 65.62 406.51 55.87
  A 1.00 0.98 70.2 0 0 405.74 55.50
  L 394.53 55.50
  Q 394.05 55.50 394.04 55.97
  C 393.97 61.02 395.23 71.66 392.14 75.61
  C 389.14 79.43 382.47 79.34 379.75 75.36
  Q 378.23 73.13 378.17 68.95
  C 377.98 55.58 378.31 39.03 378.23 15.25
  C 378.21 9.58 383.58 6.74 388.75 7.05
  C 398.81 7.67 414.14 5.74 425.02 10.26
  C 436.64 15.09 439.67 30.71 434.82 41.51
  C 432.68 46.27 428.88 49.60 424.33 51.94
  A 1.02 1.01 56.4 0 0 424.02 53.50
  Z
  M 393.75 22.08
  L 393.75 41.30
  A 0.61 0.61 0.0 0 0 394.36 41.91
  L 410.91 41.91
  A 10.54 9.90 -0.0 0 0 421.45 32.01
  L 421.45 31.37
  A 10.54 9.90 0.0 0 0 410.91 21.47
  L 394.36 21.47
  A 0.61 0.61 0.0 0 0 393.75 22.08
  Z"
/>
<path fill="#00b6ec" d="
  M 19.17 21.87
  Q 18.12 21.84 18.11 22.88
  L 17.95 35.66
  Q 17.95 36.20 18.48 36.20
  Q 31.42 36.32 44.24 36.31
  C 55.46 36.29 55.65 50.86 43.11 50.96
  Q 31.20 51.05 19.40 50.98
  A 1.12 1.12 0.0 0 0 18.27 52.06
  Q 17.96 60.87 18.31 70.00
  C 18.67 79.35 6.21 81.54 3.27 73.40
  Q 2.50 71.30 2.50 65.50
  Q 2.50 42.10 2.50 18.69
  C 2.50 11.85 4.30 7.45 11.69 7.48
  Q 30.03 7.55 48.35 7.47
  C 52.23 7.45 55.11 8.15 56.50 11.84
  C 58.22 16.45 55.00 21.47 50.00 21.68
  Q 34.55 22.34 19.17 21.87
  Z"
/>
<path fill="#aee8fa" d="
  M 139.35 45.36
  A 36.77 36.77 0.0 0 1 102.58 82.13
  A 36.77 36.77 0.0 0 1 65.81 45.36
  A 36.77 36.77 0.0 0 1 102.58 8.59
  A 36.77 36.77 0.0 0 1 139.35 45.36
  Z
  M 75.40 51.56
  C 76.72 69.76 96.92 81.95 113.44 72.45
  C 131.54 62.04 140.51 38.59 121.57 23.48
  Q 115.38 18.55 108.17 16.86
  C 91.91 13.03 75.85 24.02 75.29 41.25
  Q 75.10 47.33 75.40 51.56
  Z"
/>
<path fill="#00cff9" d="
  M 113.44 72.45
  C 96.92 81.95 76.72 69.76 75.40 51.56
  Q 75.10 47.33 75.29 41.25
  C 75.85 24.02 91.91 13.03 108.17 16.86
  Q 115.38 18.55 121.57 23.48
  C 140.51 38.59 131.54 62.04 113.44 72.45
  Z
  M 84.62 37.32
  C 83.65 48.47 82.67 69.38 99.63 68.05
  C 110.07 67.23 129.40 47.16 121.31 36.00
  Q 113.93 25.83 101.45 23.84
  C 92.20 22.36 85.44 27.85 84.62 37.32
  Z"
/>
<path fill="#00b6ec" d="
  M 99.63 68.05
  C 82.67 69.38 83.65 48.47 84.62 37.32
  C 85.44 27.85 92.20 22.36 101.45 23.84
  Q 113.93 25.83 121.31 36.00
  C 129.40 47.16 110.07 67.23 99.63 68.05
  Z
  M 111.82 38.92
  Q 106.50 35.80 100.95 33.15
  C 97.29 31.41 92.79 30.61 92.31 36.06
  Q 91.92 40.47 92.56 56.30
  Q 92.75 60.85 97.05 60.52
  A 3.86 3.82 20.0 0 0 99.47 59.41
  Q 105.35 53.50 111.64 47.02
  C 114.26 44.33 115.92 41.32 111.82 38.92
  Z"
/>
<path fill="#aee8fa" d="
  M 244.81 39.23
  L 243.00 38.95
  Q 242.17 38.42 242.60 37.61
  Q 242.84 37.14 243.33 37.34
  Q 244.47 37.82 244.81 39.23
  Z"
/>
</svg>
